<?xml version="1.0" encoding="UTF-8"?>
<svg version="1.1" viewBox="0 0 2000 1300" xmlns="http://www.w3.org/2000/svg">
<g transform="translate(-.42722 .52632)">
<svg width="2e3" height="1300" data-background-color="#293040" viewBox="0 0 380 247" xmlns="http://www.w3.org/2000/svg" xmlns:xlink="http://www.w3.org/1999/xlink">
<g transform="translate(.081172 -.1)">
<svg width="379.84" height="247.2" viewBox="0 0 379.8376556897855 247.2">
<svg width="379.84" height="247.2" viewBox="0 0 395.52 257.406137952397">
<g transform="translate(0 156.38)">
<svg width="395.52" height="101.03" viewBox="0 0 395.52 101.02506031137204">
<svg width="395.52" height="101.03" viewBox="0 0 395.52 101.02506031137204">
<svg width="395.52" height="71.013" viewBox="0 0 395.52 71.01291232784682">
<g>
<svg width="395.52" height="71.013" data-palette-color="#d5b263" viewBox="5.32 -39.11 290.7 52.2">
<path class="wordmark-text-0" d="m5.32 0v-35.77h12.09q4.73 0 8.31 1.31t5.97 3.55q2.39 2.25 3.6 5.3t1.21 6.52q0 2.24-0.51 4.53-0.52 2.28-1.58 4.4-1.06 2.13-2.67 3.98-1.61 1.86-3.82 3.23-2.21 1.36-5.03 2.16-2.82 0.79-6.26 0.79h-11.31zm4.79-31.98v28.2h7.39q3.54 0 6.18-1.14 2.64-1.13 4.36-3.08 1.72-1.94 2.58-4.54 0.85-2.6 0.85-5.55 0-3.22-0.99-5.8-0.99-2.57-2.88-4.37-1.89-1.79-4.66-2.76-2.77-0.96-6.31-0.96h-6.52zm34.3 31.98v-25.88h3.61l0.73 7.76q0.32-0.61 0.67-1.25 0.36-0.65 0.71-1.26 0.36-0.61 0.7-1.15 0.34-0.53 0.61-0.93 0.54-0.75 1.21-1.42t1.45-1.18q0.78-0.5 1.66-0.78t1.88-0.28q0.71 0 1.34 0.16 0.64 0.16 1.05 0.53l-0.49 4.34q-0.44-0.12-0.86-0.16-0.43-0.03-0.85-0.03-1.73 0-3.01 0.56t-2.3 1.52q-1.01 0.97-1.83 2.26-0.81 1.3-1.64 2.79v14.4h-4.64zm40.79-4.83v2.63q-0.93 0.66-2.14 1.16-1.2 0.5-2.5 0.84-1.29 0.35-2.6 0.52-1.3 0.17-2.43 0.17-2.49 0-4.73-0.83-2.25-0.83-3.93-2.44-1.69-1.61-2.69-3.99-1-2.39-1-5.49 0-3.19 1.06-5.81 1.06-2.61 2.84-4.45 1.79-1.85 4.12-2.85t4.89-1q2.08 0 3.87 0.7 1.8 0.69 3.13 2.09 1.33 1.39 2.09 3.48 0.75 2.08 0.75 4.87 0 0.56-0.05 1.34t-0.19 1.63h-17.68q0 2.1 0.75 3.75 0.74 1.65 2.1 2.78 1.35 1.14 3.23 1.73 1.88 0.58 4.15 0.58 0.56 0 1.37-0.05 0.8-0.05 1.73-0.19 0.93-0.15 1.93-0.43t1.93-0.74zm-17.19-10.31h13.53q0-1.83-0.51-3.23-0.52-1.41-1.4-2.36t-2.03-1.44q-1.16-0.49-2.48-0.49-1.47 0-2.76 0.6-1.3 0.6-2.26 1.63-0.96 1.02-1.53 2.39-0.56 1.37-0.56 2.9zm39.11 11.28q-0.61 0.52-1.48 1.26-0.86 0.74-1.95 1.43-1.09 0.68-2.37 1.17t-2.72 0.49q-1.29 0-2.53-0.45-1.23-0.46-2.18-1.35t-1.53-2.21q-0.57-1.31-0.57-3.02 0-1.05 0.26-2.13 0.25-1.07 0.86-2.06t1.6-1.86q0.99-0.86 2.44-1.51 1.46-0.65 3.43-1.01 1.98-0.37 4.54-0.37h2.2v-2.24q0-1.13-0.39-2.03t-1.09-1.55q-0.69-0.65-1.66-1-0.96-0.36-2.13-0.36-0.88 0-1.87 0.2-0.99 0.19-1.98 0.56t-1.89 0.86q-0.9 0.48-1.59 1.07l-0.44-0.24-0.97-3.57q1.41-0.78 2.73-1.28t2.53-0.79q1.21-0.3 2.31-0.41 1.09-0.11 2.1-0.11 4.56 0 6.77 1.89 2.21 1.9 2.21 5.68v12.75q0 0.31 0.05 0.76 0.05 0.46 0.23 0.87 0.18 0.42 0.54 0.71 0.35 0.29 0.96 0.29 0.34 0 0.91-0.11 0.56-0.11 1.12-0.38v2.59q-1.17 0.81-2.36 1.31-1.18 0.5-2.28 0.5-1 0-1.65-0.4-0.64-0.41-1.07-1.04-0.43-0.64-0.67-1.41-0.25-0.77-0.42-1.5zm0-3.12v-5.67h-1.85q-2.86 0-4.56 0.41-1.69 0.4-2.59 1.07-0.89 0.67-1.17 1.55t-0.28 1.83q0 1.03 0.3 1.83 0.29 0.81 0.81 1.38 0.53 0.58 1.26 0.87t1.59 0.29q0.66 0 1.35-0.16 0.7-0.16 1.49-0.56t1.69-1.08q0.89-0.69 1.96-1.76zm14.09 6.98v-25.88h3.61l0.73 4.49q0.83-0.78 1.92-1.66 1.08-0.88 2.32-1.61 1.23-0.73 2.56-1.22t2.67-0.49q1.1 0 2.18 0.37 1.07 0.37 1.99 1.02 0.91 0.66 1.63 1.6t1.14 2.09q0.9-0.8 1.98-1.7 1.07-0.89 2.28-1.64 1.21-0.76 2.57-1.25 1.37-0.49 2.88-0.49 1.79 0 3.22 0.7 1.42 0.69 2.42 1.94 1.01 1.24 1.54 2.94 0.54 1.7 0.54 3.7v17.09h-4.64v-16.7q0-1.32-0.35-2.38-0.36-1.06-1.02-1.82t-1.6-1.16-2.11-0.4q-1 0-1.89 0.29t-1.76 0.82q-0.86 0.52-1.73 1.26-0.87 0.73-1.77 1.58 0.05 0.35 0.06 0.68t0.01 0.74v17.09h-4.64v-16.7q0-1.32-0.36-2.38-0.37-1.06-1.04-1.82t-1.62-1.16q-0.96-0.4-2.1-0.4-0.98 0-1.86 0.29t-1.72 0.82q-0.84 0.52-1.68 1.25-0.85 0.72-1.73 1.55v18.55h-4.63zm68.52-3.3q1.61 0 2.98-0.42 1.37-0.43 2.34-1.22 0.98-0.8 1.53-1.9 0.55-1.09 0.55-2.44 0-1.58-0.75-2.68-0.74-1.1-1.95-1.93t-2.77-1.48-3.17-1.32q-1.62-0.67-3.18-1.45t-2.77-1.9q-1.21-1.13-1.95-2.65-0.75-1.53-0.75-3.7 0-2.3 0.88-4.13t2.46-3.11q1.57-1.28 3.73-1.95t4.75-0.67q1.59 0 3.98 0.3 2.39 0.31 5.08 1.11l-0.81 4.25-0.49 0.24q-1.34-0.61-2.61-1.02-1.27-0.42-2.39-0.66-1.12-0.25-2.08-0.34-0.95-0.1-1.66-0.1-1.44 0-2.6 0.35-1.16 0.36-1.97 1.03-0.82 0.67-1.27 1.63-0.46 0.97-0.46 2.19 0 1.64 0.75 2.78 0.74 1.15 1.98 2.03 1.23 0.88 2.79 1.56 1.56 0.69 3.19 1.37 1.62 0.68 3.18 1.46 1.57 0.78 2.8 1.82t1.98 2.46q0.74 1.41 0.74 3.39 0 2.17-0.94 4.14-0.94 1.96-2.64 3.46-1.69 1.51-4.07 2.4t-5.26 0.89q-1.22 0-2.55-0.17-1.34-0.17-2.68-0.48-1.34-0.3-2.65-0.74-1.3-0.44-2.47-0.98l0.83-4.27 0.48-0.25q2.49 1.44 5.04 2.27 2.56 0.83 4.85 0.83zm19.97 3.3v-39.11h4.64v17.43q0.88-0.78 1.95-1.61 1.08-0.83 2.32-1.51 1.25-0.69 2.61-1.13 1.37-0.44 2.83-0.44 1.76 0 3.19 0.67 1.43 0.68 2.45 1.88 1.03 1.21 1.58 2.91t0.55 3.77v17.14h-4.64v-16.75q0-1.41-0.4-2.49-0.41-1.07-1.1-1.79-0.7-0.72-1.67-1.08-0.98-0.35-2.1-0.35-2.05 0-3.89 1.07-1.83 1.08-3.68 2.84v18.55h-4.64zm41.21 0.49q-2.88 0-5.13-1.03-2.25-1.02-3.8-2.76-1.55-1.73-2.36-4.04-0.82-2.3-0.82-4.87 0-2.93 1.04-5.5 1.03-2.58 2.88-4.51 1.84-1.93 4.38-3.04t5.52-1.11q2.9 0 5.17 1.04t3.82 2.8q1.55 1.75 2.36 4.06 0.8 2.31 0.8 4.85 0 2.95-1.04 5.53-1.05 2.57-2.91 4.48-1.86 1.9-4.39 3-2.54 1.1-5.52 1.1zm1.02-3.71q1.79 0 3.24-0.72t2.49-1.97q1.04-1.24 1.61-2.94t0.57-3.65q0-1.93-0.56-3.75t-1.62-3.24q-1.06-1.43-2.6-2.3t-3.47-0.87q-1.78 0-3.23 0.72-1.46 0.72-2.49 1.98-1.04 1.26-1.62 2.97-0.57 1.71-0.57 3.66 0 1.93 0.56 3.75t1.63 3.23q1.06 1.42 2.58 2.27 1.53 0.86 3.48 0.86zm24.46-15.33v14.16q0.69 0.34 1.46 0.56t1.53 0.35q0.77 0.14 1.48 0.2t1.22 0.06q2 0 3.68-0.76 1.67-0.76 2.86-2.1 1.2-1.34 1.86-3.16t0.66-3.94q0-1.88-0.53-3.57-0.52-1.68-1.48-2.95-0.97-1.27-2.32-2.02-1.36-0.74-2.99-0.74-2.03 0-3.9 1.09-1.87 1.08-3.53 2.82zm-1.12-7.33 0.83 4.49q0.86-0.83 1.89-1.71 1.04-0.87 2.26-1.61 1.22-0.73 2.64-1.19 1.41-0.47 3.03-0.47 2.36 0 4.23 1.04t3.17 2.76q1.31 1.72 2.01 3.95 0.69 2.24 0.69 4.63 0 3.15-1.16 5.81t-3.13 4.59q-1.98 1.93-4.63 3-2.65 1.08-5.63 1.08-1.22 0-2.61-0.17t-2.47-0.47v13.24h-4.64v-38.97h3.52z" fill="#d5b263" data-fill-palette-color="primary"/>
</svg>
</g>
</svg>
<g transform="translate(75.544 87.777)">
<svg width="244.43" height="13.248" viewBox="0 0 244.43135999999998 13.24770369281646">
<g>
<svg width="244.43" height="13.248" data-palette-color="#d5b263" viewBox="2.25 -33.5 816.35 44.25">
<path class="slogan-text-1" d="m2.25 0v-0.5h0.25q0.4 0 0.7-0.28 0.3-0.27 0.53-0.67 0.22-0.4 0.35-0.85 0.12-0.45 0.12-0.85v-26.75q0-0.35-0.12-0.8-0.13-0.45-0.35-0.85-0.23-0.4-0.53-0.68-0.3-0.27-0.7-0.27h-0.25v-0.5h19.25v4.65h-0.5q-0.1-1.15-0.9-2.03-0.8-0.87-2.5-0.87h-10.05v12.65h8.3q1.15 0 1.93-0.7 0.77-0.7 0.77-1.65h0.5v6.25h-0.5q0-0.9-0.75-1.55t-1.95-0.65h-8.3v15.15h10.95q0.95 0 1.65-0.45t1.18-1.08q0.47-0.62 0.7-1.35 0.22-0.72 0.22-1.22h0.5v5.85h-20.5zm31 0h-6.55v-0.5q0.4 0 0.7-0.3t0.52-0.7q0.23-0.4 0.33-0.88 0.1-0.47 0.1-0.87v-25.6q0-0.85-0.25-1.6t-1.5-0.8v-0.5l5.05-1.55v30.05q0 0.4 0.1 0.87 0.1 0.48 0.32 0.88 0.23 0.4 0.5 0.7 0.28 0.3 0.68 0.3v0.5zm24.9-10.1h-17.35q0.2 1.75 0.85 3.32 0.65 1.58 1.72 2.78 1.08 1.2 2.63 1.92 1.55 0.73 3.59 0.73 1.11 0 2.33-0.33 1.23-0.32 2.28-0.92t1.87-1.48q0.83-0.87 1.13-1.97h0.45v3.75q-0.31 0-0.68 0.2-0.38 0.2-0.88 0.5-1 0.6-2.69 1.27-1.7 0.68-4.5 0.68-2.25 0-4.28-0.65t-3.57-2q-1.55-1.35-2.48-3.45-0.92-2.1-0.92-5 0-1.85 0.62-3.75 0.63-1.9 1.9-3.43 1.28-1.52 3.28-2.47t4.8-0.95q2.5 0 4.37 0.85 1.88 0.85 3.1 2.35 1.23 1.5 1.83 3.55t0.6 4.5zm-10.1-9.6q-1.75 0-3.03 0.7-1.27 0.7-2.18 1.8-0.89 1.1-1.39 2.5t-0.65 2.8h14.25q-0.05-1.45-0.53-2.85-0.47-1.4-1.32-2.5-0.86-1.1-2.15-1.78-1.3-0.67-3-0.67zm29.54-1.3h4.9v0.5q-0.35 0-0.7 0.25t-0.67 0.65q-0.33 0.4-0.6 0.87-0.28 0.48-0.48 0.88l-8.6 18.7-8.55-18.9q-0.35-0.8-0.9-1.63-0.55-0.82-1.4-0.82v-0.5h6.85v0.5q-0.3 0-0.77 0.3-0.48 0.3-0.48 0.85 0 0.25 0.4 1.15l5.75 12.95 6.2-13.5q0.2-0.5 0.2-0.75 0-0.45-0.42-0.73-0.43-0.27-0.73-0.27v-0.5zm26.05 21h-4.85v-2.55l-0.25 0.25q-1.25 1.25-2.87 1.95-1.63 0.7-3.93 0.7-1.75 0-3-0.4t-2.05-1.13q-0.8-0.72-1.17-1.67-0.38-0.95-0.38-2 0-1.7 0.92-3 0.93-1.3 2.68-2.3t4.28-1.83q2.52-0.82 5.77-1.62-0.1-1.95-0.8-3.15t-1.65-1.88q-0.95-0.67-2-0.9-1.05-0.22-1.8-0.22-1.3 0-2.27 0.4-0.98 0.4-1.71 1.03-0.72 0.62-1.22 1.34-0.5 0.73-0.8 1.38h-0.45v-3.65q0.4-0.05 0.75-0.25t0.85-0.4q0.75-0.3 2.05-0.88 1.3-0.57 3.65-0.57 2.75 0 4.45 0.7t2.63 1.85q0.92 1.15 1.22 2.62 0.3 1.48 0.3 3.03v9.9q0 1 0.45 1.87 0.45 0.88 1.2 0.88v0.5zm-5.4-4.15 0.55-0.6v-7.15l-0.5 0.1q-1.2 0.3-2.92 0.8-1.73 0.5-3.28 1.3t-2.65 1.9-1.1 2.55q0 1.6 1.3 2.65t3.4 1.05q1.65 0 2.9-0.72 1.25-0.73 2.3-1.88zm20.7-15.15h-5.6v12.05q0 1.3 0.05 2.35t0.25 1.75 0.6 1.07q0.4 0.38 1.1 0.38 1.05 0 1.97-1 0.93-1 1.18-2.4h0.45v3.65q-0.45 0-0.75 0.3-0.4 0.35-1.13 0.75-0.72 0.4-2.17 0.4-1.8 0-2.8-0.7t-1.45-1.85-0.53-2.55q-0.07-1.4-0.07-2.85v-11.35h-2.8v-1.7h2.8v-4.45q0-0.85-0.23-1.58-0.22-0.72-1.47-0.77v-0.5l5-1.6v8.9h5.6v1.7zm23.84 9.2h-17.34q0.2 1.75 0.84 3.32 0.66 1.58 1.73 2.78 1.08 1.2 2.62 1.92 1.56 0.73 3.61 0.73 1.1 0 2.32-0.33 1.22-0.32 2.28-0.92 1.04-0.6 1.87-1.48 0.82-0.87 1.13-1.97h0.44v3.75q-0.29 0-0.67 0.2-0.37 0.2-0.87 0.5-1 0.6-2.71 1.27-1.69 0.68-4.5 0.68-2.25 0-4.27-0.65-2.03-0.65-3.57-2-1.55-1.35-2.48-3.45t-0.93-5q0-1.85 0.63-3.75 0.62-1.9 1.9-3.43 1.28-1.52 3.28-2.47t4.79-0.95q2.5 0 4.38 0.85 1.87 0.85 3.1 2.35t1.83 3.55q0.59 2.05 0.59 4.5zm-10.09-9.6q-1.75 0-3.03 0.7t-2.18 1.8q-0.89 1.1-1.39 2.5t-0.65 2.8h14.25q-0.06-1.45-0.53-2.85t-1.32-2.5-2.15-1.78q-1.31-0.67-3-0.67zm25.14-12.8v-0.5h6.9v0.5q-0.35 0.05-0.65 0.3t-0.3 0.75q0 0.25 0.15 0.55l7.5 13.15 7.2-12.45q0.2-0.4 0.28-0.6 0.07-0.2 0.07-0.5-0.1-0.8-0.57-1-0.48-0.2-0.58-0.2v-0.5h5.35v0.5q-0.75 0-1.52 0.92-0.78 0.93-1.33 1.88l-7.8 13.5v12.95q0 0.4 0.13 0.85 0.12 0.45 0.32 0.87 0.2 0.43 0.5 0.73t0.7 0.3h0.25v0.5h-7.15v-0.5h0.25q0.4 0 0.7-0.28 0.3-0.27 0.52-0.7 0.23-0.42 0.33-0.9 0.1-0.47 0.1-0.87v-12.5l-8.05-13.8q-0.25-0.4-0.6-0.9t-0.75-0.95-0.85-0.78q-0.45-0.32-0.85-0.32h-0.25zm33.3 32.85q-2.5 0-4.5-0.83-2-0.82-3.43-2.25-1.42-1.42-2.2-3.37-0.77-1.95-0.77-4.25 0-2.45 0.85-4.48 0.85-2.02 2.35-3.47t3.55-2.25 4.45-0.8 4.4 0.77q2 0.78 3.45 2.18t2.25 3.32q0.8 1.93 0.8 4.23 0 2.15-0.73 4.17-0.72 2.03-2.15 3.58-1.42 1.55-3.5 2.5-2.07 0.95-4.82 0.95zm-0.3-20.05q-1.8 0.1-3.18 0.88-1.37 0.77-2.3 2-0.92 1.22-1.4 2.77-0.47 1.55-0.47 3.15 0 1.85 0.57 3.57 0.58 1.73 1.65 3.08 1.08 1.35 2.58 2.15t3.35 0.8 3.27-0.8q1.43-0.8 2.38-2.07 0.95-1.28 1.42-2.88 0.48-1.6 0.48-3.2 0-1.65-0.5-3.33-0.5-1.67-1.55-3.05-1.05-1.37-2.63-2.22-1.57-0.85-3.67-0.85zm35.75-1.85v18.3q0 0.35 0.1 0.82 0.1 0.48 0.27 0.9 0.18 0.43 0.48 0.73t0.7 0.3v0.5h-4.85v-2.75q-0.75 1.1-2.2 2.15t-3.75 1.05q-2.9 0-4.61-1-1.69-1-2.59-2.55-0.91-1.55-1.16-3.38-0.25-1.82-0.25-3.42v-7.15q0-0.45-0.02-0.88-0.02-0.42-0.2-0.77-0.17-0.35-0.53-0.58-0.34-0.22-1-0.22v-0.45l5.06-1.6v12.75q0 3.8 1.65 5.6t4.04 1.8q1.31 0 2.33-0.58 1.03-0.57 1.75-1.37 0.73-0.8 1.1-1.65 0.38-0.85 0.38-1.4v-10.65q0-0.45-0.03-0.88-0.03-0.42-0.2-0.77t-0.52-0.58q-0.35-0.22-1-0.22v-0.45l5.05-1.6zm20.09 1.15-1.5 3.05q-0.6-1-1.25-1.25t-1.5-0.25q-0.55 0-1.17 0.25-0.63 0.25-1.23 0.65t-1.17 0.88q-0.58 0.47-0.98 0.87v13q0 0.4 0.1 0.85t0.33 0.87q0.22 0.43 0.5 0.7 0.27 0.28 0.67 0.28v0.5h-6.5v-0.5q0.35 0 0.65-0.28 0.3-0.27 0.53-0.7 0.22-0.42 0.32-0.87t0.1-0.85v-13.95q0-0.7-0.45-1.4t-1.3-0.9v-0.4l5.05-1.5v3q0.45-0.55 0.95-1.08 0.5-0.52 1.13-0.95 0.62-0.42 1.37-0.7 0.75-0.27 1.75-0.27 0.7 0 1.8 0.3t1.8 0.65zm36.4 11.55q0 2.5-1 4.27-1 1.78-2.58 2.88-1.57 1.1-3.55 1.6-1.97 0.5-3.92 0.5-2 0-3.45-0.4t-2.65-0.75q-0.8-0.25-1.45-0.43-0.65-0.17-1.3-0.17v-5.7h0.5q0 1.9 0.97 3.02 0.98 1.13 2.28 1.73t2.6 0.77q1.3 0.18 1.9 0.18 2.15 0 3.7-0.63 1.55-0.62 2.55-1.65 1-1.02 1.47-2.27 0.48-1.25 0.48-2.55 0-1.65-0.7-2.78-0.7-1.12-1.83-1.97-1.12-0.85-2.57-1.45t-2.95-1.2q-1.7-0.65-3.35-1.35t-2.95-1.73q-1.3-1.02-2.1-2.45-0.8-1.42-0.8-3.52 0-2.2 0.85-3.83 0.85-1.62 2.27-2.67 1.43-1.05 3.25-1.58 1.83-0.52 3.73-0.52 1.3 0 2.45 0.17 1.15 0.18 2.2 0.43 0.85 0.2 1.65 0.32 0.8 0.13 1.55 0.13v5.15h-0.5q-0.1-2.6-2.05-3.53-1.95-0.92-5.4-0.92-2 0-3.28 0.67-1.27 0.68-2.02 1.65-0.75 0.98-1.03 2.1-0.27 1.13-0.27 1.98 0 1.4 0.62 2.4 0.63 1 1.68 1.75t2.42 1.35q1.38 0.6 2.88 1.15 1.7 0.65 3.45 1.4t3.12 1.85q1.38 1.1 2.25 2.7 0.88 1.6 0.88 3.9zm14.75-10.45h-5.6v12.05q0 1.3 0.05 2.35t0.25 1.75 0.6 1.07q0.4 0.38 1.1 0.38 1.05 0 1.97-1 0.93-1 1.18-2.4h0.45v3.65q-0.45 0-0.75 0.3-0.4 0.35-1.13 0.75-0.72 0.4-2.17 0.4-1.8 0-2.8-0.7t-1.45-1.85-0.53-2.55q-0.07-1.4-0.07-2.85v-11.35h-2.8v-1.7h2.8v-4.45q0-0.85-0.23-1.58-0.22-0.72-1.47-0.77v-0.5l5-1.6v8.9h5.6v1.7zm22.04 1-10.3 25.45q-0.7 2.1-1.77 2.85-1.08 0.75-2.23 0.75-0.75 0-1.32-0.2-0.58-0.2-1-0.47-0.43-0.28-0.68-0.53t-0.3-0.4l1.65-4.05q0.25 0.9 0.5 1.35 0.25 0.5 0.7 0.9t1.1 0.4q1.2 0 1.9-1.75l2.45-6.15-8.05-18.2q-0.25-0.6-0.82-1.38-0.58-0.77-1.58-0.77v-0.5h6.6v0.5q-0.2 0-0.5 0.35t-0.3 0.9q0 0.45 0.2 0.8l6.15 14.15 5.9-14.45q0.15-0.35 0.15-0.65 0-0.5-0.32-0.8-0.33-0.3-0.68-0.3v-0.5h4.85v0.5q-0.8 0-1.37 0.67-0.58 0.68-0.93 1.53zm12.15 18.3h-6.55v-0.5q0.4 0 0.7-0.3t0.53-0.7q0.22-0.4 0.32-0.88 0.1-0.47 0.1-0.87v-25.6q0-0.85-0.25-1.6t-1.5-0.8v-0.5l5.05-1.55v30.05q0 0.4 0.1 0.87 0.1 0.48 0.33 0.88 0.22 0.4 0.5 0.7 0.27 0.3 0.67 0.3v0.5zm24.9-10.1h-17.35q0.2 1.75 0.85 3.32 0.65 1.58 1.72 2.78 1.08 1.2 2.63 1.92 1.55 0.73 3.6 0.73 1.1 0 2.32-0.33 1.23-0.32 2.28-0.92t1.87-1.48q0.83-0.87 1.13-1.97h0.45v3.75q-0.3 0-0.68 0.2-0.37 0.2-0.87 0.5-1 0.6-2.7 1.27-1.7 0.68-4.5 0.68-2.25 0-4.28-0.65-2.02-0.65-3.57-2t-2.48-3.45q-0.92-2.1-0.92-5 0-1.85 0.62-3.75 0.63-1.9 1.9-3.43 1.28-1.52 3.28-2.47t4.8-0.95q2.5 0 4.37 0.85 1.88 0.85 3.1 2.35 1.23 1.5 1.83 3.55t0.6 4.5zm-10.1-9.6q-1.75 0-3.03 0.7-1.27 0.7-2.17 1.8t-1.4 2.5-0.65 2.8h14.25q-0.05-1.45-0.53-2.85-0.47-1.4-1.32-2.5t-2.15-1.78q-1.3-0.67-3-0.67zm14.7 15.05q1.45 0 2.12 1 0.68 1 0.68 2.3 0 0.75-0.2 1.68-0.2 0.92-0.78 1.85-0.57 0.92-1.65 1.85-1.07 0.92-2.82 1.72l-0.25-0.45q1-0.9 1.57-1.62 0.58-0.73 0.85-1.3 0.28-0.58 0.35-1.08 0.08-0.5 0.08-1.05 0-0.4-0.25-0.63-0.25-0.22-0.55-0.42-0.4-0.25-0.8-0.58-0.4-0.32-0.4-1.12 0-0.95 0.6-1.55t1.45-0.6zm18.59 4.65v-0.5h0.25q0.4 0 0.7-0.28 0.3-0.27 0.53-0.67 0.22-0.4 0.35-0.85 0.12-0.45 0.12-0.85v-26.75q0-0.35-0.12-0.8-0.13-0.45-0.35-0.85-0.23-0.4-0.53-0.68-0.3-0.27-0.7-0.27h-0.25v-0.5h19.25v4.65h-0.5q-0.1-1.15-0.9-2.03-0.8-0.87-2.5-0.87h-10.05v12.65h8.3q1.15 0 1.93-0.7 0.77-0.7 0.77-1.65h0.5v6.25h-0.5q0-0.9-0.75-1.55t-1.95-0.65h-8.3v15.15h10.95q0.95 0 1.65-0.45t1.18-1.08q0.47-0.62 0.7-1.35 0.22-0.72 0.22-1.22h0.5v5.85h-20.5zm56.25-12.6v9.35q0 0.4 0.1 0.87 0.1 0.48 0.3 0.88t0.47 0.7q0.28 0.3 0.68 0.3v0.5h-6.5v-0.5q0.4 0 0.7-0.3t0.52-0.7q0.23-0.4 0.33-0.88 0.1-0.47 0.1-0.87v-10.8q0-1.15-0.33-2.2-0.32-1.05-0.97-1.82-0.65-0.78-1.6-1.26-0.95-0.47-2.15-0.47-1.35 0-2.33 0.62-0.97 0.63-1.6 1.53-0.62 0.9-0.92 1.82-0.3 0.93-0.3 1.53v11.05q0 0.4 0.1 0.87 0.1 0.48 0.32 0.88 0.23 0.4 0.5 0.7 0.28 0.3 0.68 0.3v0.5h-6.45v-0.5q0.35 0 0.65-0.3t0.52-0.7q0.23-0.4 0.33-0.88 0.1-0.47 0.1-0.87v-11.1q0-1.2-0.43-2.22-0.42-1.03-1.15-1.73-0.72-0.7-1.65-1.1-0.92-0.4-1.87-0.4-1.3 0-2.28 0.5-0.97 0.5-1.6 1.25-0.62 0.75-0.95 1.62-0.32 0.88-0.32 1.68v11.5q0 0.4 0.1 0.87 0.1 0.48 0.32 0.88 0.23 0.4 0.5 0.7 0.28 0.3 0.68 0.3v0.5h-6.45v-0.5q0.35 0 0.65-0.3t0.52-0.7q0.23-0.4 0.33-0.88 0.1-0.47 0.1-0.87v-13.35q0-0.4-0.05-0.9t-0.2-0.95-0.5-0.75-0.95-0.3v-0.45l4.95-1.65v2.55q0.75-0.85 2.07-1.65 1.33-0.8 3.48-0.8 1.4 0 2.5 0.4t1.92 1.02q0.83 0.63 1.43 1.43t1 1.55q0.4-0.75 0.95-1.53 0.55-0.77 1.32-1.42 0.78-0.65 1.85-1.05 1.08-0.4 2.53-0.4 2.8 0 4.4 1t2.37 2.4q0.78 1.4 0.98 2.92 0.2 1.53 0.2 2.58zm17.35-8.75q2.7 0 4.67 0.9 1.98 0.9 3.28 2.4t1.95 3.42q0.65 1.93 0.65 3.93 0 2.05-0.65 4.02-0.65 1.98-1.98 3.55-1.32 1.58-3.27 2.53t-4.5 0.95q-1.9 0-3.45-0.78-1.55-0.77-2.45-1.87v2.3h-4.9v-0.5q0.35 0 0.65-0.3t0.52-0.7q0.23-0.4 0.33-0.88 0.1-0.47 0.1-0.87v-25.5q0-0.85-0.25-1.6t-1.45-0.8v-0.5l5-1.55v14.3q1.15-1.15 2.72-1.8 1.58-0.65 3.03-0.65zm0.5 20q1.8-0.1 3.1-0.88 1.3-0.77 2.17-1.97 0.88-1.2 1.3-2.73 0.43-1.52 0.43-3.12 0-1.8-0.5-3.5t-1.48-3.05q-0.97-1.35-2.42-2.18-1.45-0.82-3.3-0.82-1.05 0-2.05 0.47-1 0.48-1.78 1.25-0.77 0.78-1.25 1.85-0.47 1.08-0.47 2.28v6.2q0 1.45 0.55 2.6t1.45 1.95 2.02 1.22q1.13 0.43 2.23 0.43zm28.19-19.05-1.5 3.05q-0.6-1-1.25-1.25t-1.5-0.25q-0.55 0-1.17 0.25-0.63 0.25-1.23 0.65t-1.17 0.88q-0.58 0.47-0.98 0.87v13q0 0.4 0.1 0.85t0.33 0.87q0.22 0.43 0.5 0.7 0.27 0.28 0.67 0.28v0.5h-6.5v-0.5q0.35 0 0.65-0.28 0.3-0.27 0.53-0.7 0.22-0.42 0.32-0.87t0.1-0.85v-13.95q0-0.7-0.45-1.4t-1.3-0.9v-0.4l5.05-1.5v3q0.45-0.55 0.95-1.08 0.5-0.52 1.13-0.95 0.62-0.42 1.37-0.7 0.75-0.27 1.75-0.27 0.7 0 1.8 0.3t1.8 0.65zm21.2 20.4h-4.85v-2.55l-0.25 0.25q-1.25 1.25-2.87 1.95-1.63 0.7-3.93 0.7-1.75 0-3-0.4t-2.05-1.13q-0.8-0.72-1.17-1.67-0.38-0.95-0.38-2 0-1.7 0.93-3 0.92-1.3 2.67-2.3t4.28-1.83q2.52-0.82 5.77-1.62-0.1-1.95-0.8-3.15t-1.65-1.88q-0.95-0.67-2-0.9-1.05-0.22-1.8-0.22-1.3 0-2.27 0.4-0.98 0.4-1.7 1.03-0.73 0.62-1.23 1.34-0.5 0.73-0.8 1.38h-0.45v-3.65q0.4-0.05 0.75-0.25t0.85-0.4q0.75-0.3 2.05-0.88 1.3-0.57 3.65-0.57 2.75 0 4.45 0.7t2.63 1.85q0.92 1.15 1.22 2.62 0.3 1.48 0.3 3.03v9.9q0 1 0.45 1.87 0.45 0.88 1.2 0.88v0.5zm-5.4-4.15 0.55-0.6v-7.15l-0.5 0.1q-1.2 0.3-2.92 0.8-1.73 0.5-3.28 1.3t-2.65 1.9-1.1 2.55q0 1.6 1.3 2.65t3.4 1.05q1.65 0 2.9-0.72 1.25-0.73 2.3-1.88zm28.65-1.55v3.9q-0.4 0-0.75 0.17-0.35 0.18-0.8 0.43-0.85 0.5-2.15 1.02-1.3 0.53-3.4 0.53-2.55 0-4.73-0.83-2.17-0.82-3.75-2.3-1.57-1.47-2.45-3.45-0.87-1.97-0.87-4.27 0-2.15 0.77-4.1 0.78-1.95 2.23-3.45t3.57-2.4q2.13-0.9 4.83-0.9 1.85 0 3 0.42 1.15 0.43 1.95 0.83 0.45 0.25 0.87 0.4 0.43 0.15 0.88 0.15v3.8h-0.5q-0.25-0.95-0.9-1.68-0.65-0.72-1.5-1.22t-1.85-0.75-1.95-0.25q-2.05 0-3.6 0.72-1.55 0.73-2.55 1.9-1 1.18-1.5 2.68t-0.5 3.1q0 1.85 0.6 3.62 0.6 1.78 1.72 3.18 1.13 1.4 2.73 2.25t3.6 0.85q1.4 0 2.57-0.4 1.18-0.4 2-1.05 0.83-0.65 1.33-1.43 0.5-0.77 0.6-1.47h0.5zm23.45-4.4h-17.35q0.2 1.75 0.85 3.32 0.65 1.58 1.72 2.78 1.08 1.2 2.63 1.92 1.55 0.73 3.6 0.73 1.1 0 2.32-0.33 1.23-0.32 2.28-0.92t1.87-1.48q0.83-0.87 1.13-1.97h0.45v3.75q-0.3 0-0.68 0.2-0.37 0.2-0.87 0.5-1 0.6-2.7 1.27-1.7 0.68-4.5 0.68-2.25 0-4.28-0.65-2.02-0.65-3.57-2t-2.48-3.45q-0.92-2.1-0.92-5 0-1.85 0.62-3.75 0.63-1.9 1.9-3.43 1.28-1.52 3.28-2.47t4.8-0.95q2.5 0 4.37 0.85 1.88 0.85 3.1 2.35 1.23 1.5 1.83 3.55t0.6 4.5zm-10.1-9.6q-1.75 0-3.03 0.7-1.27 0.7-2.17 1.8t-1.4 2.5-0.65 2.8h14.25q-0.05-1.45-0.53-2.85-0.47-1.4-1.32-2.5t-2.15-1.78q-1.3-0.67-3-0.67zm25.14-12.8v-0.5h6.9v0.5q-0.35 0.05-0.65 0.3t-0.3 0.75q0 0.25 0.15 0.55l7.5 13.15 7.2-12.45q0.2-0.4 0.27-0.6 0.08-0.2 0.08-0.5-0.1-0.8-0.58-1-0.47-0.2-0.57-0.2v-0.5h5.35v0.5q-0.75 0-1.53 0.92-0.77 0.93-1.32 1.88l-7.8 13.5v12.95q0 0.4 0.12 0.85 0.13 0.45 0.33 0.87 0.2 0.43 0.5 0.73t0.7 0.3h0.25v0.5h-7.15v-0.5h0.25q0.4 0 0.7-0.28 0.3-0.27 0.52-0.7 0.23-0.42 0.33-0.9 0.1-0.47 0.1-0.87v-12.5l-8.05-13.8q-0.25-0.4-0.6-0.9t-0.75-0.95-0.85-0.78q-0.45-0.32-0.85-0.32h-0.25zm33.3 32.85q-2.5 0-4.5-0.83-2-0.82-3.43-2.25-1.42-1.42-2.2-3.37-0.77-1.95-0.77-4.25 0-2.45 0.85-4.48 0.85-2.02 2.35-3.47t3.55-2.25 4.45-0.8 4.4 0.77q2 0.78 3.45 2.18t2.25 3.32q0.8 1.93 0.8 4.23 0 2.15-0.73 4.17-0.72 2.03-2.15 3.58-1.42 1.55-3.5 2.5-2.07 0.95-4.82 0.95zm-0.3-20.05q-1.8 0.1-3.18 0.88-1.37 0.77-2.3 2-0.92 1.22-1.4 2.77-0.47 1.55-0.47 3.15 0 1.85 0.57 3.57 0.58 1.73 1.65 3.08 1.08 1.35 2.58 2.15t3.35 0.8 3.27-0.8q1.43-0.8 2.38-2.07 0.95-1.28 1.42-2.88 0.48-1.6 0.48-3.2 0-1.65-0.5-3.33-0.5-1.67-1.55-3.05-1.05-1.37-2.63-2.22-1.57-0.85-3.67-0.85zm35.74-1.85v18.3q0 0.35 0.1 0.82 0.1 0.48 0.28 0.9 0.17 0.43 0.47 0.73t0.7 0.3v0.5h-4.85v-2.75q-0.75 1.1-2.2 2.15t-3.75 1.05q-2.9 0-4.6-1t-2.6-2.55-1.15-3.38q-0.25-1.82-0.25-3.42v-7.15q0-0.45-0.02-0.88-0.03-0.42-0.2-0.77-0.18-0.35-0.53-0.58-0.35-0.22-1-0.22v-0.45l5.05-1.6v12.75q0 3.8 1.65 5.6t4.05 1.8q1.3 0 2.33-0.58 1.02-0.57 1.75-1.37 0.72-0.8 1.1-1.65 0.37-0.85 0.37-1.4v-10.65q0-0.45-0.02-0.88-0.03-0.42-0.2-0.77-0.18-0.35-0.53-0.58-0.35-0.22-1-0.22v-0.45l5.05-1.6zm20.1 1.15-1.5 3.05q-0.6-1-1.25-1.25t-1.5-0.25q-0.55 0-1.17 0.25-0.63 0.25-1.23 0.65t-1.17 0.88q-0.58 0.47-0.98 0.87v13q0 0.4 0.1 0.85t0.33 0.87q0.22 0.43 0.5 0.7 0.27 0.28 0.67 0.28v0.5h-6.5v-0.5q0.35 0 0.65-0.28 0.3-0.27 0.53-0.7 0.22-0.42 0.32-0.87t0.1-0.85v-13.95q0-0.7-0.45-1.4t-1.3-0.9v-0.4l5.05-1.5v3q0.45-0.55 0.95-1.08 0.5-0.52 1.13-0.95 0.62-0.42 1.37-0.7 0.75-0.27 1.75-0.27 0.7 0 1.8 0.3t1.8 0.65zm16.1 20.4v-0.5h0.25q0.35 0 0.65-0.3t0.52-0.7q0.23-0.4 0.33-0.88 0.1-0.47 0.1-0.87v-26.65q0-0.35-0.1-0.8t-0.3-0.85-0.5-0.68q-0.3-0.27-0.7-0.27h-0.25v-0.5h9.65q3.95 0 7.1 1.37 3.15 1.38 5.32 3.7 2.18 2.33 3.33 5.33t1.15 6.25q0 3.05-1.1 5.97-1.1 2.93-3.3 5.23t-5.5 3.72q-3.3 1.43-7.65 1.43h-9zm23.15-15.6q0-3.2-1.15-6.05t-3.23-4.98q-2.07-2.12-4.9-3.37-2.82-1.25-6.12-1.25h-2.55v29.5h2.65q2.7 0 5.42-0.83 2.73-0.82 4.93-2.55 2.2-1.72 3.57-4.32 1.38-2.6 1.38-6.15zm21.39-4.8-1.5 3.05q-0.6-1-1.25-1.25t-1.5-0.25q-0.55 0-1.17 0.25-0.63 0.25-1.23 0.65t-1.17 0.88q-0.58 0.47-0.98 0.87v13q0 0.4 0.1 0.85t0.33 0.87q0.22 0.43 0.5 0.7 0.27 0.28 0.67 0.28v0.5h-6.5v-0.5q0.35 0 0.65-0.28 0.3-0.27 0.53-0.7 0.22-0.42 0.32-0.87t0.1-0.85v-13.95q0-0.7-0.45-1.4t-1.3-0.9v-0.4l5.05-1.5v3q0.45-0.55 0.95-1.08 0.5-0.52 1.13-0.95 0.62-0.42 1.37-0.7 0.75-0.27 1.75-0.27 0.7 0 1.8 0.3t1.8 0.65zm23.25 10.3h-17.35q0.2 1.75 0.85 3.32 0.65 1.58 1.73 2.78 1.07 1.2 2.62 1.92 1.55 0.73 3.6 0.73 1.1 0 2.33-0.33 1.22-0.32 2.27-0.92t1.88-1.48q0.82-0.87 1.12-1.97h0.45v3.75q-0.3 0-0.67 0.2-0.38 0.2-0.88 0.5-1 0.6-2.7 1.27-1.7 0.68-4.5 0.68-2.25 0-4.27-0.65-2.03-0.65-3.58-2t-2.47-3.45q-0.93-2.1-0.93-5 0-1.85 0.63-3.75 0.62-1.9 1.9-3.43 1.27-1.52 3.27-2.47t4.8-0.95q2.5 0 4.38 0.85 1.87 0.85 3.1 2.35 1.22 1.5 1.82 3.55t0.6 4.5zm-10.1-9.6q-1.75 0-3.02 0.7-1.28 0.7-2.18 1.8t-1.4 2.5-0.65 2.8h14.25q-0.05-1.45-0.52-2.85-0.48-1.4-1.33-2.5t-2.15-1.78q-1.3-0.67-3-0.67zm30.95 19.7h-4.85v-2.55l-0.25 0.25q-1.25 1.25-2.88 1.95-1.62 0.7-3.92 0.7-1.75 0-3-0.4t-2.05-1.13q-0.8-0.72-1.18-1.67-0.37-0.95-0.37-2 0-1.7 0.92-3 0.93-1.3 2.68-2.3t4.27-1.83q2.53-0.82 5.78-1.62-0.1-1.95-0.8-3.15t-1.65-1.88q-0.95-0.67-2-0.9-1.05-0.22-1.8-0.22-1.3 0-2.28 0.4-0.97 0.4-1.7 1.03-0.72 0.62-1.22 1.34-0.5 0.73-0.8 1.38h-0.45v-3.65q0.4-0.05 0.75-0.25t0.85-0.4q0.75-0.3 2.05-0.88 1.3-0.57 3.65-0.57 2.75 0 4.45 0.7t2.62 1.85q0.93 1.15 1.23 2.62 0.3 1.48 0.3 3.03v9.9q0 1 0.45 1.87 0.45 0.88 1.2 0.88v0.5zm-5.4-4.15 0.55-0.6v-7.15l-0.5 0.1q-1.2 0.3-2.93 0.8-1.72 0.5-3.27 1.3t-2.65 1.9-1.1 2.55q0 1.6 1.3 2.65t3.4 1.05q1.65 0 2.9-0.72 1.25-0.73 2.3-1.88zm42.2-8.45v9.35q0 0.4 0.1 0.87 0.1 0.48 0.3 0.88t0.47 0.7q0.28 0.3 0.68 0.3v0.5h-6.5v-0.5q0.4 0 0.7-0.3t0.52-0.7q0.23-0.4 0.33-0.88 0.1-0.47 0.1-0.87v-10.8q0-1.15-0.33-2.2-0.32-1.05-0.97-1.82-0.65-0.78-1.6-1.26-0.95-0.47-2.15-0.47-1.35 0-2.33 0.62-0.97 0.63-1.6 1.53-0.62 0.9-0.92 1.82-0.3 0.93-0.3 1.53v11.05q0 0.4 0.1 0.87 0.1 0.48 0.32 0.88 0.23 0.4 0.5 0.7 0.28 0.3 0.68 0.3v0.5h-6.45v-0.5q0.35 0 0.65-0.3t0.52-0.7q0.23-0.4 0.33-0.88 0.1-0.47 0.1-0.87v-11.1q0-1.2-0.43-2.22-0.42-1.03-1.15-1.73-0.72-0.7-1.65-1.1-0.92-0.4-1.87-0.4-1.3 0-2.28 0.5-0.97 0.5-1.6 1.25-0.62 0.75-0.95 1.62-0.32 0.88-0.32 1.68v11.5q0 0.4 0.1 0.87 0.1 0.48 0.32 0.88 0.23 0.4 0.5 0.7 0.28 0.3 0.68 0.3v0.5h-6.45v-0.5q0.35 0 0.65-0.3t0.52-0.7q0.23-0.4 0.33-0.88 0.1-0.47 0.1-0.87v-13.35q0-0.4-0.05-0.9t-0.2-0.95-0.5-0.75-0.95-0.3v-0.45l4.95-1.65v2.55q0.75-0.85 2.07-1.65 1.33-0.8 3.48-0.8 1.4 0 2.5 0.4t1.92 1.02q0.83 0.63 1.43 1.43t1 1.55q0.4-0.75 0.95-1.53 0.55-0.77 1.32-1.42 0.78-0.65 1.85-1.05 1.08-0.4 2.53-0.4 2.8 0 4.4 1t2.37 2.4q0.78 1.4 0.98 2.92 0.2 1.53 0.2 2.58zm22.89 6.9q0 1.3-0.65 2.4t-1.77 1.92q-1.13 0.83-2.63 1.3-1.5 0.48-3.25 0.48-2.15 0-3.5-0.58-1.35-0.57-2.3-1.17-0.65-0.4-1.2-0.67-0.55-0.28-1.2-0.28v-3.8h0.5q0.15 0.7 0.88 1.52 0.72 0.83 1.75 1.53 1.02 0.7 2.25 1.17 1.22 0.48 2.47 0.48 0.9 0 1.85-0.2t1.73-0.65q0.77-0.45 1.3-1.13 0.52-0.67 0.52-1.62t-0.55-1.65-1.4-1.23q-0.85-0.52-1.95-0.92t-2.2-0.75q-1.3-0.4-2.62-0.9-1.33-0.5-2.38-1.18-1.05-0.67-1.7-1.65-0.65-0.97-0.65-2.32 0-1.15 0.43-2.2 0.42-1.05 1.4-1.83 0.97-0.77 2.52-1.25 1.55-0.47 3.75-0.47 1.95 0 3.03 0.32 1.07 0.33 1.77 0.68 0.45 0.25 0.9 0.37 0.45 0.13 1 0.13v3.5h-0.4q-0.9-1.65-2.75-2.5t-3.8-0.85q-1.25 0-2.15 0.32-0.9 0.33-1.47 0.81-0.58 0.47-0.85 1.07-0.28 0.6-0.28 1.2 0 0.85 0.48 1.45 0.47 0.6 1.3 1.05 0.82 0.45 1.85 0.85 1.02 0.4 2.17 0.75 1.4 0.45 2.8 0.97 1.4 0.53 2.5 1.28t1.8 1.77q0.7 1.03 0.7 2.48z" fill="#d5b263" data-fill-palette-color="secondary"/>
</svg>
</g>
</svg>
</g>
</svg>
</svg>
</g>
<g transform="translate(115.87)">
<svg width="163.77" height="139.62" viewBox="0 0 163.77419401065768 139.61663335031616">
<svg class="icon-icon-0" width="163.77" height="139.62" enable-background="new 0 0 100 100" data-fill-palette-color="accent" version="1.1" viewBox="0.0017770501910064906 8.628607433327964 99.99821620962562 85.24794991399193" xml:space="preserve" xmlns="http://www.w3.org/2000/svg" xmlns:xlink="http://www.w3.org/1999/xlink"><g fill="#c9ad8b" data-fill-palette-color="accent"><path d="m88.406 9.826c3.995-1.437 9.531-2.341 11.257 2.671 1.521 4.347-3.097 13.503-4.511 17.66-1.938 5.695-3.944 11.463-6.667 16.838-2.541 4.665-8.027 4.479-12.773 3.834 2.238 1.056 5.379 1.964 7.119 3.842 2.373 2.263-1.899 1.188 1.818 3.312 1.365 0.78 2.907 1.943 4.011 3.085 2.324 2.406-0.032 2.374-1.229 4.278-1.549 2.552 2.425 3.946 3.267 5.604 1.132 3.145-4.121 0.956-4.365 3.622-0.559 4.73 1.752 6.606 5.486 9.151 2.233 1.522 7.175 3.635 8.05 6.423 0.985 3.141-3.854 4.646-5.528 2.234-2.456-3.536-7.743-14.905-13.245-7.511-0.861 1.157-1.3 5.096-3.264 1.903-1.431-2.325-3.086-2.307-4.41 0.324-2.994 5.946-8.565-8.76-10.064-10.645-1.98-2.583-2.893-5.544-4.551-8.305-1.943-2.974-2.575-9.244-5.916-11.024-0.971 4.744 3.327 24.369-1.833 26.809-2.893-1.827-2.096-8.4-2.039-11.207 0.101-5.025 1.247-11.17-0.388-16.033-2.478 1.698-3.665 6.183-4.872 8.771-1.694 3.635-3.572 7.646-6.013 10.827-2.411 3.044-6.237 17.258-10.616 9.601-0.878-1.536-2.771-0.845-3.48 0.317-2.681 4.415-2.679-0.459-4.55-2.011-7.668-6.36-9.583 7.883-14.02 9.514-2.271 0.875-5.139-1.879-3.418-4.031 2.329-2.594 5.668-4.22 8.47-6.232 2.296-1.649 5.208-4.143 4.722-7.322-0.512-3.342-4.737-2.195-4.695-4.473 0.124-1.964 3.446-2.416 3.736-4.739 0.287-2.301-3.189-2.147-2.615-4.233 1.46-3.896 6.357-3.456 6.755-7.272 0-2.218 5.522-3.517 6.943-4.455-3.611 0.403-8.206 1-11.465-1.046-2.831-1.653-4.338-7.709-5.46-10.522-1.986-4.982-3.79-10.047-5.417-15.158-1.206-3.787-4.724-10.775-0.9-14.024 6.759-5.819 22.126 6.041 26.964 10.475 7.569 6.937 13.369 15.723 17.027 25.293 1.937-0.968 1.914-8.272 4.958-7.518 2.033 0.712 2.999 4.693 4.114 6.253 5.894-15.323 17.979-29.137 33.607-34.88 2.034-0.731-2.508 0.922 0 0z" fill="#c9ad8b" data-fill-palette-color="accent"/></g></svg>
</svg>
</g>
</svg>
</svg>
<rect width="379.84" height="247.2" fill="none" visibility="hidden"/>
</g>
</svg>
</g>
</svg>
